<svg xmlns="http://www.w3.org/2000/svg" xmlns:svg="http://www.w3.org/2000/svg" xmlns:xlink="http://www.w3.org/1999/xlink" id="svg2834" width="250" height="250" version="1.0"><defs id="defs2836"><linearGradient id="linearGradient3593"><stop style="stop-color:#fff;stop-opacity:1" id="stop3595" offset="0"/><stop style="stop-color:#fff;stop-opacity:0" id="stop3597" offset="1"/></linearGradient><radialGradient id="radialGradient5586" cx="536.922" cy="257.299" r="201.377" fx="536.922" fy="257.299" gradientTransform="matrix(0.5716748,0.6230185,-0.666331,0.6114179,361.64298,-271.53663)" gradientUnits="userSpaceOnUse" xlink:href="#linearGradient3593"/><linearGradient id="linearGradient3571"><stop style="stop-color:#26761e;stop-opacity:1" id="stop3573" offset="0"/><stop style="stop-color:#2cb134;stop-opacity:.99607843" id="stop3575" offset="1"/></linearGradient><linearGradient id="linearGradient5584" x1="499.983" x2="600.942" y1="373.983" y2="174.813" gradientUnits="userSpaceOnUse" xlink:href="#linearGradient3571"/><filter id="filter4131" width="1.559" height="1.632" x="-.279" y="-.316"><feGaussianBlur id="feGaussianBlur4133" stdDeviation="46.888"/></filter><linearGradient id="linearGradient3160"><stop style="stop-color:#4b4b4b;stop-opacity:1" id="stop3162" offset="0"/><stop style="stop-color:#fff;stop-opacity:1" id="stop3164" offset="1"/></linearGradient><linearGradient id="linearGradient5582" x1="160.795" x2="160.795" y1="229.549" y2="62.1" gradientTransform="matrix(3.4800508,0,0,3.4800508,-164.72229,-124.26474)" gradientUnits="userSpaceOnUse" xlink:href="#linearGradient3160"/><linearGradient id="linearGradient3605"><stop style="stop-color:#fff;stop-opacity:1" id="stop3607" offset="0"/><stop style="stop-color:#fff;stop-opacity:0" id="stop3609" offset="1"/></linearGradient><radialGradient id="radialGradient5580" cx="150.554" cy="160.698" r="312.591" fx="150.554" fy="160.698" gradientTransform="translate(3.136538,4.704807)" gradientUnits="userSpaceOnUse" xlink:href="#linearGradient3605"/><linearGradient id="linearGradient3308"><stop id="stop3310" offset="0" style="stop-color:#212121;stop-opacity:1"/><stop id="stop3312" offset="1" style="stop-color:#b8b8b8;stop-opacity:1"/></linearGradient><radialGradient id="radialGradient5578" cx="72.081" cy="237.312" r="89.824" fx="72.081" fy="237.312" gradientTransform="matrix(11.60017,-8.917595e-8,7.23316e-8,9.4090262,-757.86736,-1543.8267)" gradientUnits="userSpaceOnUse" xlink:href="#linearGradient3308"/><filter id="filter5560" width="1.206" height="1.746" x="-.103" y="-.373"><feGaussianBlur id="feGaussianBlur5562" stdDeviation="33.029"/></filter></defs><metadata id="metadata2839"/><g id="layer1"><g id="g5404" transform="matrix(0.2489489,1.7442352e-2,0,0.2489489,-445.99572,35.857978)"><g id="g5566" transform="translate(1850.0625,-200.66022)"><rect id="rect5448" width="619.332" height="205.605" x="437.749" y="629.608" rx="115.402" ry="34.205" transform="matrix(0.9987456,-5.0072968e-2,-0.4600004,0.8879187,0,0)" style="opacity:1;fill:#000;fill-opacity:1;fill-rule:nonzero;stroke:none;stroke-width:17.4002533;stroke-linecap:butt;stroke-linejoin:miter;marker:none;marker-start:none;marker-mid:none;marker-end:none;stroke-miterlimit:4;stroke-dasharray:none;stroke-dashoffset:0;stroke-opacity:1;visibility:visible;display:inline;overflow:visible;filter:url(#filter5560);enable-background:accumulate"/><g id="g5406" transform="matrix(1,-3.8452198e-2,0,1,-33.517997,25.41038)"><rect id="rect5408" width="625.182" height="625.182" x="78.281" y="63.865" rx="116.492" ry="104.008" style="opacity:1;fill:url(#radialGradient5578);fill-opacity:1;fill-rule:nonzero;stroke:#2b2b2b;stroke-width:17.4002533;stroke-linecap:butt;stroke-linejoin:miter;marker:none;marker-start:none;marker-mid:none;marker-end:none;stroke-miterlimit:4;stroke-dasharray:none;stroke-dashoffset:0;stroke-opacity:1;visibility:visible;display:inline;overflow:visible;enable-background:accumulate"/><rect id="rect5410" width="618.909" height="618.908" x="84.181" y="70.802" rx="114.924" ry="114.986" style="opacity:.58499995;fill:url(#radialGradient5580);fill-opacity:1;fill-rule:nonzero;stroke:none;stroke-width:17.4002533;stroke-linecap:butt;stroke-linejoin:miter;marker:none;marker-start:none;marker-mid:none;marker-end:none;stroke-miterlimit:4;stroke-dasharray:none;stroke-dashoffset:0;stroke-opacity:1;visibility:visible;display:inline;overflow:visible;enable-background:accumulate"/><rect id="rect5412" width="584.053" height="432.736" x="97.7" y="91.847" ry="111.915" style="opacity:.81000001;fill:url(#linearGradient5582);fill-opacity:1;fill-rule:nonzero;stroke:none;stroke-width:5;stroke-linecap:butt;stroke-linejoin:miter;marker:none;marker-start:none;marker-mid:none;marker-end:none;stroke-miterlimit:4;stroke-dasharray:none;stroke-dashoffset:0;stroke-opacity:1;visibility:visible;display:inline;overflow:visible;enable-background:accumulate"/><path id="path5414" d="M 343.95169,399.15619 L 286.55471,418.35886 C 278.81721,395.56911 262.42813,384.17413 237.38744,384.17389 C 210.65836,384.17413 197.29388,392.82587 197.29396,410.12914 C 197.29388,417.02262 199.79092,422.86078 204.78511,427.64367 C 209.77912,432.42694 221.06858,436.57696 238.65355,440.09375 C 268.05528,446.00244 289.57913,451.98128 303.22516,458.0303 C 316.87081,464.07966 328.37129,473.82166 337.72665,487.25634 C 347.08157,500.6913 351.75914,515.70875 351.75937,532.30875 C 351.75914,558.33441 341.73578,580.84301 321.68926,599.83462 C 301.64233,618.82627 271.92395,628.32209 232.53402,628.32209 C 202.99137,628.32209 177.84504,621.60468 157.09497,608.16984 C 136.34481,594.73504 122.6638,574.79383 116.0519,548.34615 L 178.51333,534.20792 C 185.5472,561.07765 205.10155,574.51247 237.17642,574.51242 C 252.65096,574.51247 264.18662,571.52305 271.78343,565.54414 C 279.37992,559.56535 283.17825,552.42591 283.17842,544.12578 C 283.17825,535.68514 279.73162,529.14357 272.83852,524.50108 C 265.9451,519.85878 252.65096,515.49774 232.95606,511.41794 C 196.23879,503.8214 170.07254,493.44634 154.45724,480.29274 C 138.84186,467.13942 131.03419,447.9016 131.0342,422.57923 C 131.03419,396.9759 140.35416,375.38171 158.99413,357.7966 C 177.63402,340.21202 202.92103,331.4196 234.85522,331.41931 C 291.40796,331.4196 327.77341,353.99854 343.95169,399.15619 L 343.95169,399.15619 z M 570.09055,527.87737 L 432.92864,527.87737 C 432.78788,531.67579 432.71754,534.98174 432.71762,537.79523 C 432.71754,552.98862 436.76206,564.45394 444.85118,572.19122 C 452.94011,579.9286 462.61177,583.79727 473.8662,583.79723 C 494.82721,583.79727 507.41795,572.61331 511.63848,550.24531 L 568.61342,554.46568 C 552.71651,603.70331 520.43074,628.32209 471.75601,628.32209 C 450.5134,628.32209 432.47135,624.06656 417.62981,615.55548 C 402.78814,607.04443 390.54909,594.62953 380.91262,578.31075 C 371.2761,561.99206 366.45785,542.43772 366.45787,519.64765 C 366.45785,485.74418 376.12952,458.38217 395.47289,437.56153 C 414.81617,416.74126 439.68114,406.33103 470.06787,406.33082 C 497.5001,406.33103 521.02862,416.0027 540.65349,435.34583 C 560.27799,454.68935 570.09033,485.53316 570.09055,527.87737 L 570.09055,527.87737 z M 432.71762,491.3712 L 508.4732,491.3712 C 506.50354,462.11015 494.47551,447.47956 472.38907,447.47939 C 448.75492,447.47956 435.53112,462.11015 432.71762,491.3712 L 432.71762,491.3712 z" style="font-size:432.16552734px;font-style:normal;font-variant:normal;font-weight:400;font-stretch:normal;fill:#eee;fill-opacity:1;stroke:#000;stroke-width:10;stroke-linecap:butt;stroke-linejoin:miter;stroke-miterlimit:4;stroke-dasharray:none;stroke-opacity:.58536545;font-family:Franklin Gothic Demi;-inkscape-font-specification:Franklin Gothic Demi"/></g><g id="g5416" transform="matrix(1,0.1346918,0,1,-39.912864,-114.19452)"><path id="path5418" d="M 374.20536,300.55408 L 489.66114,433.07738 L 732.84587,180.86804 L 693.63915,111.8642 L 499.29087,317.42901 L 418.1169,242.52813 L 374.20536,300.55408 z" style="opacity:1;fill:#fff;fill-opacity:1;fill-rule:evenodd;stroke:none;stroke-width:10;stroke-linecap:butt;stroke-linejoin:miter;stroke-miterlimit:4;stroke-dasharray:none;stroke-opacity:1;filter:url(#filter4131)"/><path id="path5420" d="M 373.53938,306.93493 L 491.15956,432.39645 L 776.29316,137.17437 L 737.08644,68.170533 L 499.00091,317.9128 L 417.45092,241.06763 L 373.53938,306.93493 z" style="fill:url(#linearGradient5584);fill-opacity:1;fill-rule:evenodd;stroke:#000;stroke-width:10;stroke-linecap:butt;stroke-linejoin:miter;stroke-miterlimit:4;stroke-dasharray:none;stroke-opacity:1"/><path id="path5422" d="M 378.13061,297.20318 L 494.18252,381.44034 L 766.57739,117.90461 L 739.29317,67.976784 L 499.63937,322.42386 L 419.65765,248.71523 L 378.13061,297.20318 z" style="opacity:1;fill:url(#radialGradient5586);fill-opacity:1;fill-rule:evenodd;stroke:none;stroke-width:10;stroke-linecap:butt;stroke-linejoin:miter;stroke-miterlimit:4;stroke-dasharray:none;stroke-opacity:1"/></g></g></g></g></svg>